<svg width="71" height="72" viewBox="0 0 71 72" fill="none" xmlns="http://www.w3.org/2000/svg">
<circle cx="35.5" cy="27.1251" r="11.8333" fill="#FFAD33"/>
<circle cx="50.2917" cy="27.125" r="8.875" fill="#FFAD33"/>
<circle cx="20.7083" cy="27.125" r="8.875" fill="#FFAD33"/>
<path d="M50.2921 38.958C58.9274 38.9583 61.3894 49.2475 61.9689 52.6631C62.0676 53.2462 61.6111 53.75 61.0197 53.75H51.9698C50.7774 49.284 48.4736 44.2179 44.0138 41.3242C45.6176 39.9076 47.6702 38.958 50.2921 38.958Z" fill="#FFAD33"/>
<path d="M20.7085 38.958C23.3302 38.9581 25.3821 39.9077 26.9858 41.3242C22.5261 44.218 20.2222 49.284 19.0298 53.75H9.97995C9.38848 53.75 8.93208 53.2462 9.03073 52.6631C9.61023 49.2474 12.073 38.958 20.7085 38.958Z" fill="#FFAD33"/>
<path d="M35.5 41.9167C48.1711 41.9167 49.9877 54.9423 50.2481 58.677C50.2865 59.2279 49.8439 59.6667 49.2916 59.6667H21.7083C21.156 59.6667 20.7135 59.2279 20.7519 58.677C21.0123 54.9423 22.8288 41.9167 35.5 41.9167Z" fill="#FFAD33"/>
</svg>
