<svg width="49" height="40" viewBox="0 0 49 40" fill="none" xmlns="http://www.w3.org/2000/svg">
<path fill-rule="evenodd" clip-rule="evenodd" d="M0.87868 1.37868C0 2.25736 0 3.67157 0 6.5V13.2969C0 14.0737 0 14.4622 0.204163 14.7305C0.258738 14.8022 0.32276 14.8663 0.394489 14.9208C0.662825 15.125 1.05126 15.125 1.82812 15.125H2.4375C4.18847 15.125 5.06396 15.125 5.72669 15.4792C6.24997 15.7589 6.67856 16.1875 6.95826 16.7108C7.3125 17.3735 7.3125 18.249 7.3125 20C7.3125 21.751 7.3125 22.6265 6.95826 23.2892C6.67856 23.8125 6.24997 24.2411 5.72669 24.5208C5.06396 24.875 4.18847 24.875 2.4375 24.875H1.82812C1.05126 24.875 0.662825 24.875 0.394489 25.0792C0.32276 25.1337 0.258738 25.1978 0.204163 25.2695C0 25.5378 0 25.9263 0 26.7031V33.5C0 36.3284 0 37.7426 0.87868 38.6213C1.75736 39.5 3.17157 39.5 6 39.5H42.75C45.5784 39.5 46.9926 39.5 47.8713 38.6213C48.75 37.7426 48.75 36.3284 48.75 33.5V26.7031C48.75 25.9263 48.75 25.5378 48.5458 25.2695C48.4913 25.1978 48.4272 25.1337 48.3555 25.0792C48.0872 24.875 47.6987 24.875 46.9219 24.875H46.3125C44.5615 24.875 43.686 24.875 43.0233 24.5208C42.5 24.2411 42.0714 23.8125 41.7917 23.2892C41.4375 22.6265 41.4375 21.751 41.4375 20C41.4375 18.249 41.4375 17.3735 41.7917 16.7108C42.0714 16.1875 42.5 15.7589 43.0233 15.4792C43.686 15.125 44.5615 15.125 46.3125 15.125H46.9219C47.6987 15.125 48.0872 15.125 48.3555 14.9208C48.4272 14.8663 48.4913 14.8022 48.5458 14.7305C48.75 14.4622 48.75 14.0737 48.75 13.2969V6.5C48.75 3.67157 48.75 2.25736 47.8713 1.37868C46.9926 0.5 45.5784 0.5 42.75 0.5H6C3.17157 0.5 1.75736 0.5 0.87868 1.37868ZM24.2422 15.1395C23.9093 15.213 23.7044 15.7431 23.2946 16.8033C23.0616 17.4063 22.945 17.7078 22.727 17.9128C22.6658 17.9703 22.5994 18.0215 22.5288 18.0658C22.2767 18.2234 21.9621 18.2526 21.333 18.3111C20.2678 18.4101 19.7353 18.4596 19.5727 18.7747C19.539 18.84 19.5161 18.9106 19.5049 18.9838C19.451 19.3368 19.8425 19.7065 20.6255 20.4457L20.843 20.651L20.843 20.6511C21.209 20.9967 21.3921 21.1695 21.4979 21.3852C21.5614 21.5145 21.604 21.6539 21.624 21.7976C21.6572 22.0371 21.6036 22.2878 21.4964 22.7893L21.4581 22.9684L21.4581 22.9684C21.2659 23.8676 21.1698 24.3172 21.2898 24.5382C21.3975 24.7367 21.5961 24.8638 21.8154 24.8746C22.0595 24.8867 22.4036 24.5958 23.0916 24.014C23.5449 23.6307 23.7715 23.439 24.0231 23.3641C24.2531 23.2957 24.4969 23.2957 24.7269 23.3641C24.9785 23.439 25.2051 23.6307 25.6584 24.014C26.3464 24.5958 26.6905 24.8867 26.9346 24.8746C27.1539 24.8638 27.3525 24.7367 27.4602 24.5382C27.5802 24.3172 27.4841 23.8676 27.2919 22.9684L27.2536 22.7893L27.2535 22.7892C27.1464 22.2878 27.0928 22.0371 27.126 21.7976C27.146 21.6539 27.1886 21.5145 27.2521 21.3852C27.3579 21.1695 27.541 20.9967 27.907 20.6511L27.907 20.651L28.1245 20.4457C28.9075 19.7065 29.299 19.3368 29.2451 18.9838C29.2339 18.9106 29.211 18.84 29.1773 18.7747C29.0147 18.4596 28.4822 18.4101 27.417 18.3111C26.7879 18.2526 26.4733 18.2234 26.2212 18.0658C26.1506 18.0215 26.0842 17.9703 26.023 17.9128C25.805 17.7078 25.6884 17.4063 25.4554 16.8033C25.0456 15.7431 24.8407 15.213 24.5078 15.1395C24.4202 15.1202 24.3298 15.1202 24.2422 15.1395Z" fill="#E52D2D"/>
</svg>
